<?xml version="1.0" encoding="utf-8"?>
<!-- Generator: Adobe Illustrator 25.0.0, SVG Export Plug-In . SVG Version: 6.00 Build 0)  -->
<svg version="1.1" id="Layer_1" xmlns="http://www.w3.org/2000/svg" xmlns:xlink="http://www.w3.org/1999/xlink" x="0px" y="0px"
	 viewBox="0 0 2924 1761" style="enable-background:new 0 0 2924 1761;" xml:space="preserve">
<style type="text/css">
	.st0{fill:#3D3D55;}
	.st1{fill:url(#SVGID_1_);}
	.st2{fill:url(#SVGID_2_);}
	.st3{fill:url(#SVGID_3_);}
	.st4{fill:#EC9D72;}
	.st5{fill:#F39669;}
</style>
<g>
	<g>
		<path class="st0" d="M467.28,1474.24h-60.89l-3.24-66.72c-36.28,46.64-91.33,75.79-162.59,75.79
			c-132.15,0-228.67-102.36-228.67-229.32c0-132.8,107.54-229.32,231.91-229.32c62.83,0,114.01,20.08,148.34,57v-47.94h72.55v165.19
			h-73.2c-16.84-60.89-74.49-99.76-143.16-99.76c-86.81,0-154.83,63.48-154.83,154.82c0,85.5,62.84,154.17,150.94,154.17
			c71.91,0,126.33-45.35,144.46-108.83H241.2v-66.72h226.08V1474.24z"/>
		<path class="st0" d="M878.37,1474.24H753.99v-25.26c-26.56,22.03-57.66,34.98-94.58,34.98c-80.34,0-134.09-58.3-134.09-147.05
			v-36.08h-40.75v-68.21h115.24v99.76c0,53.12,28.5,83.57,75.14,83.57c26.56,0,55.71-15.55,79.04-44.7v-138.67h-48.58v-68.67h123.08
			v241.67h49.88V1474.24z"/>
		<path class="st0" d="M964.54,1016.92c-28.55,0-51.18,21.36-51.18,49.8c0,27.91,22.63,49.27,51.18,49.27
			c27.81,0,50.54-21.36,50.54-49.27C1015.09,1038.28,992.35,1016.92,964.54,1016.92z M1039.93,1405.62h-38.49v-241.74H878.37v68.73
			h48.64v173.01h-48.64v68.62h222.9C1075.46,1457.32,1054.32,1433.64,1039.93,1405.62z"/>
		<path class="st0" d="M1462.99,1474.24c-25.8-16.92-46.95-40.6-61.22-68.62h-38.38v-391.34h-123.71v68.73h49.17v106.16
			c-25.27-18.08-56.99-28.44-93.9-28.44c-85.54,0-154.17,71.27-154.17,159.98c0,89.35,68.62,160.62,154.17,160.62
			c36.9,0,68.62-10.36,93.9-29.08v21.99H1462.99z M1205.94,1416.61c-52.45,0-90.72-44.73-90.72-95.9
			c0-50.54,38.28-95.27,90.72-95.27c29.18,0,56.36,9.73,82.9,38.28v117.26C1262.3,1406.89,1235.13,1416.61,1205.94,1416.61z"/>
		<path class="st0" d="M1725.36,1405.57h92.58v68.67h-167.08v-21.37c-25.26,18.14-57,28.5-93.92,28.5
			c-85.51,0-154.18-71.25-154.18-160.01c0-89.39,68.67-160.65,154.18-160.65c36.93,0,68.67,10.37,93.92,28.5v-25.31h123.74v68.67
			h-49.23V1405.57z M1650.85,1333.67v-27.79c0-41.03-30.86-76.17-71.72-79.9c-3.7-0.34-7.43-0.5-11.2-0.5
			c-52.47,0-90.68,44.7-90.68,95.87c0,50.53,38.22,95.23,90.68,95.23c2.92,0,5.81-0.1,8.69-0.3
			C1618.98,1413.33,1650.85,1376.13,1650.85,1333.67z"/>
		<path class="st0" d="M2046.56,1405.62v68.62h221.21c-27.7-16.81-50.12-40.39-64.92-68.62h-32.46v-100.45
			c0-88.71-53.82-147.08-134.82-147.08c-36.9,0-68.62,13.01-94.53,35v-29.21h-123.08v68.73h48.53v173.01h-48.53v68.62h172.99v-68.62
			h-49.91V1270.8c23.26-29.08,52.45-44.62,78.99-44.62c47.37,0,75.18,29.71,75.18,83.53v95.9H2046.56z"/>
		<path class="st0" d="M2523.54,1359.58c-10.37,72.56-68.02,121.78-150.94,121.78c-97.82,0-169.08-68.02-169.08-160.01
			c0-91.98,68.67-159.36,163.24-159.36c34.33,0,63.48,10.37,85.51,28.5v-22.68h69.32v114.66h-72.55
			c-8.43-32.39-38.23-53.77-76.44-53.77c-53.77,0-94.58,40.81-94.58,92.63c0,51.83,40.81,92.63,94.58,92.63
			c37.57,0,66.08-21.38,74.49-54.41H2523.54z"/>
		<path class="st0" d="M2845.31,1417.56h-120.01H2707c-46.52-3.28-72.22-31.19-81.31-67.04h235.8c2.01-11.63,2.01-23.37,2.01-34.36
			c0-91.99-63.55-155.44-152.9-155.44c-93.26,0-159.98,69.26-159.98,160.62c0,88.61,62.28,159.24,156.39,162.41v0.21h203.86v-66.4
			H2845.31z M2712.5,1219.62c46,0,73.28,30.45,79.73,71.9h-166.54C2635.42,1252.09,2664.6,1219.62,2712.5,1219.62z"/>
	</g>
	<g>
		<g>
			<linearGradient id="SVGID_1_" gradientUnits="userSpaceOnUse" x1="1286.6398" y1="1066.5139" x2="1286.6398" y2="475.8417">
				<stop  offset="0" style="stop-color:#F4A27D"/>
				<stop  offset="1" style="stop-color:#3D3D55"/>
			</linearGradient>
			<path class="st1" d="M1468.4,601.58c-5.22-15.21-13.35-29.27-23.7-41.47c-4.6-5.39-9.64-10.35-15.03-14.94
				c-4.86-4.07-9.99-7.87-15.39-11.23c-0.18-0.09-0.35-0.18-0.53-0.27c-0.44-0.27-0.8-0.53-1.15-0.71
				c-12.56-7.6-26.62-13.09-41.56-16l-211.51-41.38l-61.9-12.11v272.61c0,61.72,43.95,115.13,104.52,126.98l211.6,41.47l30.95,6.01
				l30.95-6.01V643.93C1475.65,629.17,1473.08,614.93,1468.4,601.58z M1413.75,841.48L1214,802.3
				c-31.57-6.19-54.47-34.04-54.47-66.23V538.62l199.66,39.08c31.57,6.19,54.56,34.04,54.56,66.23V841.48z"/>
		</g>
		<g>
			<linearGradient id="SVGID_2_" gradientUnits="userSpaceOnUse" x1="1602.7588" y1="1066.5139" x2="1602.7588" y2="475.8417">
				<stop  offset="0" style="stop-color:#F4A27D"/>
				<stop  offset="1" style="stop-color:#3D3D55"/>
			</linearGradient>
			<path class="st2" d="M1729.87,475.57l-211.6,41.38c-15.03,2.92-28.92,8.4-41.47,15.92c-0.35,0.18-0.8,0.44-1.15,0.71
				c-0.18,0.09-0.35,0.18-0.53,0.35c-5.48,3.36-10.61,7.16-15.47,11.23c-5.39,4.6-10.43,9.55-14.94,14.94
				c-10.43,12.2-18.48,26.26-23.79,41.47c-4.69,13.35-7.16,27.59-7.16,42.36v260.59l30.95,6.01l30.95-6.01l211.51-41.47
				c60.57-11.85,104.61-65.26,104.61-126.98V463.46L1729.87,475.57z M1729.87,736.07c0,32.19-22.99,60.04-54.56,66.23l-199.66,39.17
				V643.93c0-32.19,22.9-60.04,54.47-66.23l199.75-39.08V736.07z"/>
		</g>
		<linearGradient id="SVGID_3_" gradientUnits="userSpaceOnUse" x1="1443.137" y1="1066.516" x2="1443.137" y2="475.8409">
			<stop  offset="0" style="stop-color:#F4A27D"/>
			<stop  offset="1" style="stop-color:#3D3D55"/>
		</linearGradient>
		<circle class="st3" cx="1443.14" cy="446.87" r="56"/>
	</g>
	<g>
		<path class="st4" d="M1453.37,7.55c-378.97,0-687.3,308.33-687.3,687.3c0,134.08,38.59,259.27,105.21,365.11
			c1.06-14.8,5.5-28.55,12.58-40.5c-54.77-95.69-86.07-206.61-86.07-324.62c0-361.41,294.16-655.58,655.58-655.58
			c361.52,0,655.58,294.16,655.58,655.58c0,163.37-59.95,312.88-159.14,427.71c5.71,1.16,11,3.49,15.65,6.77
			c8.78-3.49,17.76-6.34,26.96-8.46c92.73-117.16,148.25-265.3,148.25-426.02C2140.67,315.88,1832.34,7.55,1453.37,7.55z"/>
	</g>
	<g>
		<path class="st0" d="M1453.37,89.6c-333.71,0-605.24,271.54-605.24,605.24c0,104.79,26.75,203.55,73.91,289.62
			c9.52-4.76,19.98-7.93,31.09-9.2c-46.63-82.9-73.28-178.59-73.28-280.42c0-316.26,257.26-573.52,573.52-573.52
			c316.37,0,573.63,257.26,573.63,573.52c0,169.39-73.7,321.76-190.75,426.76h46c109.02-109.44,176.48-260.43,176.48-426.76
			C2058.72,361.14,1787.19,89.6,1453.37,89.6z"/>
	</g>
	<g>
		<path class="st5" d="M95.51,1575.59c-15.04-0.28-20.01,7.76-19.32,23.68c-0.42,18.17,1.09,112.71-1.09,128.75
			c4.36-0.67,16.37-0.81,20.41-0.82v20.96H17.39v-17.97c15.13,0.42,19.92-8,19.32-23.68c0.27-18.18-0.86-112.67,1.09-128.75
			c-4.58,0.36-16.15,0.4-20.41,0.82v-20.96h78.12V1575.59z"/>
		<path class="st5" d="M129.81,1748.16v-17.69c28.21,5.5,11.23-74.47,17.15-93.09c-4.71,0.36-14.68,0.4-19.05,0.82v-20.69
			c15.51-0.31,30.43-0.85,41.92-8.17h13.34c0.98,6.17,0.11,7.41,1.63,13.61c92.01-53.46,88.82,39.53,84.11,105.34
			c4.91-0.65,13.26-0.81,17.69-0.81v20.68h-71.31v-17.69c27.08,1.27,12.91-46.96,16.06-62.88c4.3-33.23-24.64-44.87-46.82-24.77
			c-0.32,24.02,0.92,61.41-1.09,85.47c4.63-0.66,13.45-0.81,17.69-0.81v20.68H129.81z"/>
		<path class="st5" d="M367.7,1752.51c-59.63,3.98-38.88-81.35-41.92-117.86h-18.51v-22.59c18.94-0.87,33.76-20.48,37.29-38.11
			h20.14l-0.27,38.11H399v20.96l-34.57,0.82c1.44,26.15-13.42,136.46,40.83,77.03l13.07,12.25
			C406.73,1741.27,387.63,1752.67,367.7,1752.51z"/>
		<path class="st5" d="M503.25,1752.51c-71.12,3.66-90.42-99.8-34.97-134.6c42.28-27.81,103.67,1.89,97.04,57.02l-89.28,1.63
			c-5.38,50.29,47.42,69.71,78.39,31.3l12.25,11.43C551.82,1741.72,528.05,1752.68,503.25,1752.51z M477.67,1657.52h50.08
			C530.24,1614.81,480.02,1619.18,477.67,1657.52z"/>
		<path class="st5" d="M597.7,1730.47c28.21,5.5,11.23-74.47,17.15-93.09c-4.71,0.36-14.68,0.4-19.05,0.82v-20.69
			c12.99,0.45,32.48-0.34,41.92-8.17h13.34c0.9,4.76,1.06,17.93,1.09,23.41c14.51-28.6,72.95-37.97,61.52,6.13
			c-5.74,15.52-34.39,13.92-34.84-5.31c-40.36,9.28-21.93,65.51-27.49,94.72c4.63-0.66,13.45-0.81,17.69-0.81v20.68H597.7V1730.47z"
			/>
		<path class="st5" d="M740.87,1748.16v-17.69c28.21,5.5,11.23-74.47,17.15-93.09c-4.71,0.36-14.68,0.4-19.05,0.82v-20.69
			c15.51-0.31,30.43-0.85,41.92-8.17h13.34c0.98,6.17,0.11,7.41,1.63,13.61c92.01-53.46,88.82,39.53,84.11,105.34
			c4.91-0.65,13.26-0.81,17.69-0.81v20.68h-71.31v-17.69c27.08,1.27,12.91-46.96,16.06-62.88c4.3-33.23-24.64-44.87-46.82-24.77
			c-0.32,24.02,0.92,61.41-1.09,85.47c4.63-0.66,13.45-0.81,17.69-0.81v20.68H740.87z"/>
		<path class="st5" d="M1002.17,1748.16c-0.76-5.12-0.68-7.48-1.09-12.52c-90.82,63.61-113.53-73-1.63-69.41
			c3.6-28.33-9.01-52.67-38.11-31.3c16.86,26.22-31.68,40.57-31.85,8.71c3.06-39.28,71-45.61,94.59-23.55
			c22.81,25.45,10.79,74.72,11.84,108.2c4.91-0.65,13.26-0.81,17.69-0.81v20.68H1002.17z M999.18,1685.56
			c-51.02-0.95-45.88,64.71,0,30.48C999.18,1705.92,999.18,1695.68,999.18,1685.56z"/>
		<path class="st5" d="M1134.45,1752.51c-59.63,3.98-38.88-81.35-41.92-117.86h-18.51v-22.59c18.94-0.87,33.76-20.48,37.29-38.11
			h20.14l-0.27,38.11h34.57v20.96l-34.57,0.82c1.44,26.15-13.42,136.46,40.83,77.03l13.07,12.25
			C1173.48,1741.27,1154.38,1752.67,1134.45,1752.51z"/>
		<path class="st5" d="M1205.49,1730.47c28.2,5.5,11.25-74.45,17.15-93.09c-4.71,0.36-14.68,0.4-19.05,0.82v-20.69
			c15.51-0.31,30.43-0.85,41.92-8.17h14.7c-0.29,18.52,0.87,102.08-1.09,118.95c4.63-0.66,13.45-0.81,17.69-0.81v20.68h-71.31
			V1730.47z M1239.52,1587.84c-27.86,0.65-27.51-44.75-0.27-44.64C1265.64,1542.71,1266.49,1588.43,1239.52,1587.84z"/>
		<path class="st5" d="M1373.71,1752.51c-92.39,4.6-89.8-146.04-0.81-144.8C1463.77,1602.8,1463.03,1755.6,1373.71,1752.51z
			 M1374.8,1733.19c38.97-1.2,34.85-105.55-2.44-106.43C1331.3,1630.09,1335.03,1731.09,1374.8,1733.19z"/>
		<path class="st5" d="M1473.6,1748.16v-17.69c28.21,5.5,11.24-74.48,17.15-93.09c-4.71,0.36-14.68,0.4-19.05,0.82v-20.69
			c15.51-0.31,30.43-0.85,41.92-8.17h13.33c0.98,6.17,0.11,7.41,1.63,13.61c92.01-53.46,88.82,39.53,84.11,105.34
			c4.92-0.65,13.26-0.81,17.7-0.81v20.68h-71.32v-17.69c27.08,1.27,12.91-46.96,16.06-62.88c4.3-33.23-24.65-44.87-46.82-24.77
			c-0.32,24.02,0.92,61.41-1.09,85.47c4.63-0.66,13.45-0.81,17.69-0.81v20.68H1473.6z"/>
		<path class="st5" d="M1734.9,1748.16c-0.76-5.12-0.68-7.48-1.09-12.52c-90.82,63.61-113.53-73-1.63-69.41
			c3.59-28.32-9.01-52.67-38.11-31.3c16.86,26.22-31.68,40.57-31.85,8.71c3.06-39.28,71-45.61,94.59-23.55
			c22.8,25.45,10.79,74.72,11.84,108.2c4.91-0.65,13.26-0.81,17.7-0.81v20.68H1734.9z M1731.91,1685.56
			c-51.02-0.95-45.89,64.71,0,30.48C1731.91,1705.92,1731.91,1695.68,1731.91,1685.56z"/>
		<path class="st5" d="M1810.02,1730.47c15.4,0.98,16.19-12.18,16.06-24.23c0.32-17.8-0.92-119.95,1.09-135.55
			c-4.71,0.36-14.68,0.4-19.05,0.82v-20.69c15.76-0.32,30.29-0.82,41.92-8.17h14.7c-0.36,16.16,0.99,174.2-1.09,185.64
			c4.91-0.65,13.26-0.81,17.7-0.81v20.68h-71.31V1730.47z"/>
		<path class="st5" d="M2108.34,1618.6c-4.02-74.57-122.89-44.83-57.17,4.09c150.95,46.21,81.75,168.73-30.21,116.5l0.81,11.43
			h-20.96v-63.69h17.97c0.69,58.85,107.7,60.84,76.35,4.62c-23.37-18.92-59.42-22.88-80.98-44.64
			c-58.34-62.01,34.26-122.22,92-80.57l-1.09-11.16h21.23v63.42H2108.34z"/>
		<path class="st5" d="M2235.45,1752.51c-76.27,3.35-90.12-110.95-24.9-138.82c30.87-17.39,99.02,2.74,76.21,45.32
			c-15.85,18.18-41.77-4.4-28.72-23.27c-74.53-53.15-64.73,161.69,26.95,71.58l12.52,12.25
			C2282.41,1741.55,2260.45,1752.69,2235.45,1752.51z"/>
		<path class="st5" d="M2405.84,1730.47c27.08,1.26,12.91-46.96,16.06-62.88c4.08-33.03-24.83-44.88-46.82-24.77
			c-0.23,17.83,0.75,68.32-1.09,85.47c4.91-0.65,13.26-0.81,17.7-0.81v20.68h-71.31v-17.69c15.4,0.98,16.19-12.18,16.06-24.23
			c0.32-17.8-0.92-119.95,1.09-135.55c-4.71,0.36-14.68,0.4-19.05,0.82v-20.69c15.76-0.32,30.29-0.82,41.92-8.17h14.7v80.3
			c91.73-53.54,89.62,39.2,84.65,105.34c4.83-0.67,13.19-0.81,17.7-0.81v20.68h-71.59V1730.47z"/>
		<path class="st5" d="M2572.96,1752.51c-92.39,4.6-89.8-146.04-0.81-144.8C2663.02,1602.81,2662.28,1755.6,2572.96,1752.51z
			 M2574.05,1733.19c38.97-1.19,34.84-105.55-2.44-106.43C2530.55,1630.09,2534.29,1731.09,2574.05,1733.19z"/>
		<path class="st5" d="M2739.54,1752.51c-92.39,4.6-89.8-146.04-0.81-144.8C2829.6,1602.8,2828.86,1755.6,2739.54,1752.51z
			 M2740.63,1733.19c38.97-1.19,34.84-105.55-2.44-106.43C2697.13,1630.09,2700.87,1731.09,2740.63,1733.19z"/>
		<path class="st5" d="M2833.99,1730.47c15.4,0.98,16.19-12.18,16.06-24.23c0.32-17.8-0.92-119.95,1.09-135.55
			c-4.71,0.36-14.68,0.4-19.05,0.82v-20.69c15.76-0.32,30.29-0.82,41.92-8.17h14.7c-0.36,16.16,0.99,174.2-1.09,185.64
			c4.91-0.65,13.26-0.81,17.7-0.81v20.68h-71.31V1730.47z"/>
	</g>
</g>
<g>
</g>
<g>
</g>
<g>
</g>
<g>
</g>
<g>
</g>
<g>
</g>
</svg>
